<?xml version="1.0" encoding="UTF-8"?>
<svg id="Camada_2" data-name="Camada 2" xmlns="http://www.w3.org/2000/svg" xmlns:xlink="http://www.w3.org/1999/xlink" viewBox="0 0 196.33 217.1">
  <defs>
    <style>
      .cls-1, .cls-2, .cls-3, .cls-4, .cls-5, .cls-6 {
        fill: none;
      }

      .cls-1, .cls-7, .cls-8, .cls-9, .cls-10 {
        stroke: #000;
      }

      .cls-1, .cls-7, .cls-8, .cls-4, .cls-5 {
        stroke-linejoin: bevel;
      }

      .cls-1, .cls-7, .cls-4 {
        stroke-width: 7.24px;
      }

      .cls-11 {
        letter-spacing: 0em;
      }

      .cls-11, .cls-12 {
        font-family: MontserratRoman-Bold, Montserrat;
        font-variation-settings: 'wght' 700;
        font-weight: 700;
      }

      .cls-13, .cls-14, .cls-2, .cls-15 {
        stroke-width: 0px;
      }

      .cls-13, .cls-8 {
        fill: #e5211c;
      }

      .cls-16 {
        font-family: MontserratRoman-Medium, Montserrat;
        font-variation-settings: 'wght' 500;
        font-weight: 500;
      }

      .cls-17 {
        clip-path: url(#clippath-2);
      }

      .cls-18 {
        clip-path: url(#clippath-1);
      }

      .cls-7 {
        fill: #c24793;
      }

      .cls-7, .cls-8, .cls-4, .cls-5 {
        stroke-dasharray: 0 0;
      }

      .cls-8, .cls-5 {
        stroke-width: 2.72px;
      }

      .cls-3 {
        stroke: #e5211c;
        stroke-width: 3.62px;
      }

      .cls-3, .cls-9, .cls-10, .cls-6 {
        stroke-miterlimit: 10;
      }

      .cls-15, .cls-9, .cls-19, .cls-10 {
        fill: #fff;
      }

      .cls-9 {
        stroke-width: .36px;
      }

      .cls-4 {
        stroke: #d11c1e;
      }

      .cls-20 {
        clip-path: url(#clippath);
      }

      .cls-21 {
        clip-path: url(#clippath-3);
      }

      .cls-19 {
        font-size: 6.34px;
      }

      .cls-10 {
        stroke-width: .43px;
      }

      .cls-5, .cls-6 {
        stroke: #fff;
      }

      .cls-6 {
        stroke-width: .91px;
      }
    </style>
    <clipPath id="clippath">
      <path class="cls-2" d="m167.42,46.49v104.5c0,28.49-69.94,59.04-69.94,59.04,0,0-69.94-30.55-69.94-59.04V46.49s1.37-9.86,8.34-14c6.97-4.15,61.6-25.5,61.6-25.5,0,0,54.63,21.35,61.56,25.5,6.97,4.14,8.37,14,8.37,14Z"/>
    </clipPath>
    <clipPath id="clippath-1">
      <path class="cls-2" d="m170.67,43.61v108.67c0,29.63-72.01,61.4-72.01,61.4,0,0-72.01-31.77-72.01-61.4V43.61s1.41-10.25,8.59-14.56c7.17-4.31,63.43-26.52,63.43-26.52,0,0,56.26,22.21,63.39,26.52,7.17,4.31,8.62,14.56,8.62,14.56Z"/>
    </clipPath>
    <clipPath id="clippath-2">
      <path class="cls-2" d="m155.14,53.8v85.24c0,23.24-56.49,48.16-56.49,48.16,0,0-56.49-24.92-56.49-48.16V53.8s1.11-8.04,6.73-11.42c5.63-3.38,49.75-20.8,49.75-20.8,0,0,44.13,17.42,49.72,20.8,5.63,3.38,6.76,11.42,6.76,11.42Z"/>
    </clipPath>
    <clipPath id="clippath-3">
      <path class="cls-2" d="m155.14,53.8v85.24c0,23.24-56.49,48.16-56.49,48.16,0,0-56.49-24.92-56.49-48.16V53.8s1.11-8.04,6.73-11.42c5.63-3.38,49.75-20.8,49.75-20.8,0,0,44.13,17.42,49.72,20.8,5.63,3.38,6.76,11.42,6.76,11.42Z"/>
    </clipPath>
  </defs>
  <g id="Camada_2-2" data-name="Camada 2">
    <g>
      <g>
        <path class="cls-13" d="m170.42,44.3v108.29c0,29.53-71.76,61.19-71.76,61.19,0,0-71.76-31.66-71.76-61.19V44.3s1.41-10.22,8.56-14.51c7.15-4.3,63.21-26.42,63.21-26.42,0,0,56.06,22.13,63.17,26.42,7.15,4.3,8.59,14.51,8.59,14.51Z"/>
        <path class="cls-1" d="m170.42,44.3v108.29c0,29.53-71.76,61.19-71.76,61.19,0,0-71.76-31.66-71.76-61.19V44.3s1.41-10.22,8.56-14.51c7.15-4.3,63.21-26.42,63.21-26.42,0,0,56.06,22.13,63.17,26.42,7.15,4.3,8.59,14.51,8.59,14.51Z"/>
      </g>
      <g class="cls-20">
        <line class="cls-4" x1="111.59" y1="-54.03" x2="111.59" y2="257.24"/>
        <line class="cls-4" x1="125.94" y1="-54.03" x2="125.94" y2="257.24"/>
        <line class="cls-4" x1="140.29" y1="-54.03" x2="140.29" y2="257.24"/>
        <line class="cls-4" x1="154.63" y1="-54.03" x2="154.63" y2="257.24"/>
      </g>
      <g class="cls-18">
        <line class="cls-7" x1="84.28" y1="-54.19" x2="84.28" y2="256.14"/>
        <line class="cls-7" x1="84.28" y1="-54.19" x2="84.28" y2="256.14"/>
        <line class="cls-7" x1="71.2" y1="-52.39" x2="71.2" y2="257.93"/>
        <path class="cls-7" d="m43.25-55.97V254.36-55.97Z"/>
        <path class="cls-7" d="m57.74-55.97V254.36-55.97Z"/>
        <line class="cls-7" x1="98.46" y1="-74.36" x2="98.46" y2="235.97"/>
        <line class="cls-7" x1="98.46" y1="-74.36" x2="98.46" y2="235.97"/>
      </g>
      <g>
        <path class="cls-14" d="m155.33,53.8v85.24c0,23.24-56.49,48.16-56.49,48.16,0,0-56.49-24.92-56.49-48.16V53.8s1.11-8.04,6.73-11.42c5.63-3.38,49.75-20.8,49.75-20.8,0,0,44.13,17.42,49.72,20.8,5.63,3.38,6.76,11.42,6.76,11.42Z"/>
        <path class="cls-6" d="m155.33,53.8v85.24c0,23.24-56.49,48.16-56.49,48.16,0,0-56.49-24.92-56.49-48.16V53.8s1.11-8.04,6.73-11.42c5.63-3.38,49.75-20.8,49.75-20.8,0,0,44.13,17.42,49.72,20.8,5.63,3.38,6.76,11.42,6.76,11.42Z"/>
      </g>
      <polygon class="cls-10" points="98.85 157.79 101.38 162.92 107.04 163.74 102.94 167.74 103.91 173.38 98.85 170.71 93.78 173.38 94.75 167.74 90.65 163.74 96.31 162.92 98.85 157.79"/>
      <polygon class="cls-10" points="79.98 156.79 81.24 159.36 84.07 159.77 82.03 161.77 82.51 164.59 79.98 163.25 77.44 164.59 77.93 161.77 75.88 159.77 78.71 159.36 79.98 156.79"/>
      <polygon class="cls-10" points="116.2 156.79 117.47 159.36 120.3 159.77 118.25 161.77 118.73 164.59 116.2 163.25 113.67 164.59 114.15 161.77 112.1 159.77 114.93 159.36 116.2 156.79"/>
      <g class="cls-17">
        <path class="cls-3" d="m42.73,67.09h112.02s-112.02,0-112.02,0Z"/>
        <path class="cls-3" d="m43.67,149.01h112.9s-112.9,0-112.9,0Z"/>
      </g>
      <g class="cls-21">
        <path class="cls-3" d="m42.73,67.09h112.02s-112.02,0-112.02,0Z"/>
        <path class="cls-3" d="m43.67,149.01h112.9s-112.9,0-112.9,0Z"/>
      </g>
      <path class="cls-15" d="m98.66,22.55c4.08,1.61,44.04,17.45,49.26,20.6,4.94,2.97,6.21,10.01,6.32,10.72v85.17c0,21.43-50.74,44.97-55.58,47.17-4.84-2.19-55.58-25.74-55.58-47.17V53.87c.11-.7,1.35-7.74,6.29-10.71,5.24-3.15,45.21-18.99,49.29-20.6m0-.97s-44.13,17.42-49.75,20.8c-5.63,3.38-6.73,11.42-6.73,11.42v85.24c0,23.24,56.49,48.16,56.49,48.16,0,0,56.49-24.92,56.49-48.16V53.8s-1.14-8.04-6.76-11.42c-5.6-3.38-49.72-20.8-49.72-20.8h0Z"/>
      <circle class="cls-15" cx="98.66" cy="88.62" r="35.45"/>
      <line class="cls-5" x1="42.17" y1="75.13" x2="155.14" y2="75.13"/>
      <line class="cls-5" x1="42.17" y1="140.53" x2="155.14" y2="140.53"/>
      <g>
        <path class="cls-14" d="m98.69,54.19c15.52.13,29.1,9.85,33.36,24.52,3.63,12.48.63,23.57-8.39,32.91-5.49,5.68-12.32,8.91-20.11,10.01-17.46,2.46-35.04-8.39-38.93-26.37-2.61-12.09.84-22.59,9.62-31.24,5.09-5.02,11.29-8.04,18.35-9.2,2.01-.33,4.06-.42,6.1-.62Zm1.08,7.96c-5.76.09-10.94,1.51-15.68,4.44-.24.15-.51.31-.66.54-.95,1.5-2.01,2.95-2.78,4.54-1.36,2.82-1.04,5.58.91,8.06.81,1.04,1.71,2.02,2.67,2.93,2.02,1.93,4.11,3.78,6.14,5.7.37.35.71.42,1.16.33,4.32-.81,8.65-1.62,12.97-2.4.44-.08.65-.24.81-.66,1.83-4.91,3.67-9.81,5.53-14.7.16-.43.13-.67-.2-.99-2.5-2.41-4.97-4.84-7.47-7.25-.22-.21-.57-.38-.87-.41-.91-.09-1.83-.11-2.54-.14Zm13.7,9.08c-.09.08-.43.26-.53.53-1.89,4.94-3.75,9.88-5.6,14.83-.09.24-.06.62.07.85,2.02,3.47,4.05,6.94,6.11,10.39.12.2.48.4.71.39,2.67-.15,5.33-.35,8-.53,4.05-.27,5.74-1.63,6.59-5.58.52-2.44.78-4.94,1.2-7.4.13-.75-.02-1.41-.3-2.09-1.69-4.15-4.32-7.59-7.73-10.46-.25-.21-.63-.36-.96-.39-2.42-.2-4.85-.35-7.57-.54Zm-45.03,20.39c.15,1.51.23,3.02.46,4.52.17,1.13.25,2.42.85,3.31,1.2,1.79,2.64,3.43,4.13,4.99,1.36,1.42,3.15,2.06,5.09,1.47,2.92-.88,5.79-1.91,8.67-2.9.14-.05.28-.31.3-.48.39-3.9.78-7.81,1.13-11.72.03-.31-.12-.71-.33-.94-1.27-1.48-2.58-2.93-3.87-4.39-1.53-1.73-2.98-3.54-4.92-4.86-1.48-1-3.08-1.44-4.86-1.03-1.68.39-3.1,1.28-4.43,2.34-.28.23-.53.56-.65.9-1.06,2.83-1.51,5.76-1.57,8.78Zm9.43,21.6c2.72,2.15,5.59,3.86,8.77,4.96,1.92.66,3.9,1.36,5.9,1.56,2.21.23,4.47-.07,6.71-.18.76-.04,1.54-.14,2.28-.31,1.63-.38,2.24-1.24,1.95-2.89-.33-1.87-.77-3.71-1.21-5.56-.06-.24-.34-.5-.59-.61-4.05-1.72-8.1-3.42-12.16-5.1-.3-.12-.71-.14-1.02-.04-2.06.65-4.12,1.32-6.16,2.03-1,.35-1.99.73-2.92,1.22-.36.19-.82.75-.77,1.07.2,1.38-.06,2.63-.78,3.85Zm45.02-14.03c-.1,0-.24.01-.39.03-2.84.38-5.67.75-8.51,1.14-.24.03-.5.18-.67.35-2.88,2.91-5.76,5.82-8.62,8.75-.16.16-.32.47-.27.66.47,1.94,1.02,3.86,2.18,5.53.73,1.06,1.71,1.76,3.02,1.9,1.59.18,3.04-.35,4.44-1.01,5.1-2.39,9.15-6,12.28-10.65.09-.13.17-.31.15-.45-.22-1.42-.37-2.87-.73-4.26-.39-1.5-1.28-2.04-2.89-2.01Zm-15.72-42.31c-10.19-2.26-19.66-.74-28.45,5.43,1.81.61,3.39,1.16,5,1.67.21.07.52-.01.73-.12,5.59-2.92,11.52-4.23,17.83-3.7.17.01.39-.02.53-.12,1.44-1.03,2.87-2.07,4.36-3.15Zm23.36,22.04c-2.17-6.66-5.93-11.98-11.39-16.1,0,.11.04.2.1.27,1.57,1.9,2.74,4,3.32,6.41.06.27.32.51.54.72,1.55,1.58,3.19,3.07,4.65,4.73,1.02,1.16,1.8,2.54,2.79,3.97Zm-62.12-3.8c-.1.06-.16.07-.18.11-.09.17-.17.34-.25.52-2.17,4.99-2.86,10.2-2.42,15.59.07.85.16,1.7.81,2.42,0-.13.02-.2.02-.27-.32-4.27.37-8.39,1.89-12.38.08-.22.12-.46.12-.7,0-1.75,0-3.5,0-5.29Z"/>
        <path class="cls-15" d="m99.77,62.15c.71.04,1.63.05,2.54.14.3.03.65.19.87.41,2.5,2.41,4.97,4.84,7.47,7.25.33.32.37.57.2.99-1.86,4.89-3.71,9.8-5.53,14.7-.16.42-.37.58-.81.66-4.33.78-8.65,1.59-12.97,2.4-.45.08-.78.02-1.16-.33-2.03-1.92-4.12-3.77-6.14-5.7-.95-.91-1.85-1.9-2.67-2.93-1.95-2.48-2.28-5.24-.91-8.06.77-1.59,1.83-3.04,2.78-4.54.15-.23.42-.39.66-.54,4.74-2.93,9.91-4.35,15.68-4.44Z"/>
        <path class="cls-15" d="m113.47,71.23c2.72.19,5.15.35,7.57.54.33.03.71.17.96.39,3.41,2.86,6.04,6.31,7.73,10.46.28.68.43,1.33.3,2.09-.42,2.46-.68,4.96-1.2,7.4-.85,3.95-2.54,5.31-6.59,5.58-2.67.18-5.33.38-8,.53-.24.01-.59-.18-.71-.39-2.06-3.45-4.09-6.91-6.11-10.39-.13-.23-.16-.6-.07-.85,1.85-4.95,3.71-9.9,5.6-14.83.1-.27.44-.44.53-.53Z"/>
        <path class="cls-15" d="m68.44,91.62c.06-3.02.51-5.96,1.57-8.78.13-.34.37-.67.65-.9,1.32-1.06,2.74-1.95,4.43-2.34,1.78-.41,3.38.02,4.86,1.03,1.94,1.31,3.39,3.13,4.92,4.86,1.29,1.46,2.6,2.91,3.87,4.39.2.24.36.64.33.94-.35,3.91-.74,7.81-1.13,11.72-.02.17-.16.44-.3.48-2.88.99-5.75,2.03-8.67,2.9-1.94.58-3.73-.06-5.09-1.47-1.49-1.56-2.94-3.2-4.13-4.99-.6-.9-.68-2.18-.85-3.31-.23-1.5-.31-3.01-.46-4.52Z"/>
        <path class="cls-15" d="m77.87,113.23c.72-1.22.98-2.47.78-3.85-.05-.32.41-.88.77-1.07.93-.49,1.92-.87,2.92-1.22,2.04-.71,4.09-1.38,6.16-2.03.31-.1.72-.08,1.02.04,4.06,1.68,8.12,3.38,12.16,5.1.24.1.53.37.59.61.44,1.85.88,3.69,1.21,5.56.29,1.65-.31,2.51-1.95,2.89-.74.17-1.52.27-2.28.31-2.24.11-4.5.41-6.71.18-2-.21-3.97-.9-5.9-1.56-3.18-1.09-6.05-2.8-8.77-4.96Z"/>
        <path class="cls-15" d="m122.89,99.19c1.61-.03,2.5.51,2.89,2.01.36,1.39.51,2.83.73,4.26.02.14-.06.33-.15.45-3.14,4.65-7.18,8.26-12.28,10.65-1.4.65-2.85,1.19-4.44,1.01-1.3-.15-2.28-.85-3.02-1.9-1.16-1.67-1.71-3.59-2.18-5.53-.05-.19.11-.5.27-.66,2.86-2.93,5.73-5.85,8.62-8.75.17-.17.43-.32.67-.35,2.83-.4,5.67-.77,8.51-1.14.14-.02.29-.02.39-.03Z"/>
        <path class="cls-15" d="m107.16,56.89c-1.49,1.08-2.92,2.12-4.36,3.15-.14.1-.36.14-.53.12-6.31-.53-12.24.78-17.83,3.7-.21.11-.52.19-.73.12-1.6-.51-3.19-1.06-5-1.67,8.79-6.16,18.26-7.68,28.45-5.43Z"/>
        <path class="cls-15" d="m130.53,78.93c-.99-1.43-1.76-2.81-2.79-3.97-1.46-1.66-3.09-3.16-4.65-4.73-.21-.21-.47-.45-.54-.72-.58-2.41-1.75-4.52-3.32-6.41-.06-.07-.1-.15-.1-.27,5.45,4.12,9.22,9.44,11.39,16.1Z"/>
        <path class="cls-15" d="m68.41,75.13c0,1.78,0,3.54,0,5.29,0,.23-.04.48-.12.7-1.52,3.99-2.2,8.11-1.89,12.38,0,.07,0,.14-.02.27-.65-.71-.74-1.57-.81-2.42-.45-5.39.25-10.61,2.42-15.59.08-.18.16-.35.25-.52.02-.04.08-.05.18-.11Z"/>
      </g>
      <polygon class="cls-8" points="17.44 128.71 1.24 92.53 195.08 92.53 179.29 128.71 17.44 128.71"/>
      <g>
        <path class="cls-15" d="m71.1,50.88c.03-.52.05-.79.08-1.31,3.27-5.36,4.96-7.85,8.35-12.51.1.24.15.37.26.61-3.33,1.38-4.96,2.23-8.05,4.24.04-.66.06-.99.1-1.66,3.86-2.51,5.92-3.52,10.13-5.03-.02.52-.03.77-.05,1.29-3.43,4.47-5.14,6.87-8.48,12.03-.09-.23-.13-.35-.22-.58,3.35-1.99,5.1-2.8,8.69-4.08-.02.65-.04.98-.06,1.63-4.48,1.6-6.66,2.68-10.74,5.37Z"/>
        <path class="cls-15" d="m86.06,44.31c-.45.12-.82.1-1.12-.04-.3-.14-.44-.4-.43-.76.01-.36.17-.7.48-1.01.31-.31.69-.52,1.13-.64.42-.11.78-.09,1.08.06.3.15.45.41.44.77s-.17.69-.48,1c-.31.3-.68.51-1.1.62Z"/>
        <path class="cls-15" d="m93.82,42.82c-1.02.1-1.52.16-2.53.31.06-4.12.09-6.17.15-10.29,3.88-.57,5.85-.65,9.76-.44,0,.64,0,.97.01,1.61-2.92-.16-4.4-.13-7.31.15-.03,3.46-.05,5.19-.08,8.66Zm-.14-5.51c2.68-.27,4.04-.31,6.73-.21,0,.63,0,.95.01,1.58-2.7-.1-4.06-.05-6.76.22,0-.63,0-.95.02-1.58Z"/>
        <path class="cls-15" d="m105.42,43.12c-.46-.06-.84-.22-1.16-.48-.32-.26-.48-.57-.48-.93,0-.36.15-.64.45-.82.31-.18.69-.25,1.14-.19.43.06.8.22,1.11.49.31.27.48.58.48.94s-.14.63-.45.81c-.31.18-.67.24-1.1.18Z"/>
        <path class="cls-15" d="m116.79,46.08c-1-.39-1.94-.84-2.81-1.37-.87-.53-1.63-1.11-2.29-1.76-.66-.65-1.18-1.33-1.55-2.04-.38-.72-.57-1.46-.6-2.23-.02-.77.13-1.43.47-1.98.33-.55.81-.98,1.43-1.29.62-.31,1.34-.46,2.16-.45.82.01,1.73.2,2.7.58,1.04.41,1.98.96,2.84,1.63.86.68,1.58,1.46,2.19,2.33-.56.16-.84.24-1.41.42-.49-.62-1.01-1.16-1.59-1.61-.57-.45-1.18-.8-1.84-1.06-.67-.26-1.27-.4-1.82-.41-.55-.02-1.03.07-1.43.27-.4.19-.71.48-.94.85-.22.37-.32.82-.3,1.35.02.53.16,1.04.41,1.55.26.51.6.98,1.03,1.44.43.45.94.86,1.51,1.23.58.37,1.2.68,1.88.95.67.26,1.28.42,1.84.47.56.05,1.06-.02,1.51-.2.63.75.95,1.14,1.57,1.91-.55.27-1.24.34-2.09.23-.85-.1-1.81-.37-2.89-.79Z"/>
        <path class="cls-15" d="m124.82,49.98c-.41-.25-.76-.56-1.06-.96-.3-.39-.46-.77-.48-1.13-.02-.36.1-.58.36-.64.27-.06.6.03,1,.28.38.23.71.55,1,.94.29.4.45.78.47,1.14.03.36-.09.57-.35.63-.26.06-.58-.04-.96-.27Z"/>
      </g>
      <text class="cls-19" transform="translate(76.64 134.81)"><tspan class="cls-16" x="0" y="0" xml:space="preserve">SINCE   </tspan><tspan class="cls-12" x="25" y="0">2</tspan><tspan class="cls-11" x="28.74" y="0">0</tspan><tspan class="cls-12" x="33.01" y="0">23 </tspan></text>
      <circle class="cls-15" cx="98.91" cy="133.08" r=".9"/>
      <rect class="cls-15" x="124.32" y="110.19" width="2.19" height="2.19"/>
      <g>
        <g>
          <path class="cls-10" d="m52.8,105.23h-9.63v-3.27h14.58v2.6l-9.48,11.46h9.86v3.27h-15.15v-2.6l9.83-11.46Z"/>
          <path class="cls-10" d="m58.42,119.29l7.7-17.33h3.96l7.77,17.33-4.34-.32-5.42-13.05-5.56,13.36h-4.11Z"/>
          <path class="cls-10" d="m78.53,116.54l9.57-11.32h-9.36v-3.27h14.58v2.6l-9.75,11.46h10.12v3.27h-15.15v-2.74Z"/>
          <path class="cls-10" d="m93.99,119.29l7.7-17.33h3.96l7.77,17.33h-4.21l-5.61-13.5-5.5,13.5h-4.11Z"/>
          <path class="cls-10" d="m126.27,119.29h-4.03v-17.33h13.1v3.22h-9.06v14.11Zm0-6.31v-3.22m0,0h8v3.22h-8"/>
          <path class="cls-10" d="m146.17,119.58c-1.34,0-2.58-.22-3.73-.66-1.15-.44-2.14-1.06-2.98-1.87-.84-.81-1.5-1.76-1.97-2.85-.47-1.09-.71-2.29-.71-3.59s.24-2.5.71-3.59c.47-1.09,1.13-2.04,1.98-2.85.85-.81,1.85-1.43,3-1.87,1.15-.44,2.39-.66,3.73-.66,1.5,0,2.86.26,4.08.78s2.24,1.28,3.07,2.29l-2.6,2.38c-.58-.68-1.24-1.19-1.97-1.54-.73-.35-1.53-.52-2.39-.52-.81,0-1.55.14-2.23.41s-1.26.66-1.76,1.15-.88,1.08-1.15,1.76c-.27.68-.41,1.43-.41,2.25s.14,1.58.41,2.25c.27.68.66,1.26,1.15,1.76s1.08.88,1.76,1.15,1.42.41,2.23.41c.86,0,1.66-.18,2.39-.53.73-.36,1.39-.87,1.97-1.55l2.6,2.38c-.83,1.01-1.85,1.77-3.07,2.3-1.22.53-2.59.79-4.11.79Z"/>
        </g>
        <path class="cls-9" d="m164.45,108.74h15.7c0,2.08-1.69,3.76-3.76,3.76h-15.7c0-2.08,1.69-3.76,3.76-3.76Z"/>
        <path class="cls-9" d="m15.79,108.74h15.7c2.08,0,3.76,1.69,3.76,3.76h-15.7c-2.08,0-3.76-1.69-3.76-3.76h0Z"/>
      </g>
    </g>
  </g>
</svg>