<?xml version="1.0" encoding="UTF-8"?>
<svg id="Camada_2" data-name="Camada 2" xmlns="http://www.w3.org/2000/svg" viewBox="0 0 196.33 38.9">
  <defs>
    <style>
      .cls-1 {
        stroke-width: .43px;
      }

      .cls-1, .cls-2, .cls-3 {
        stroke: #000;
      }

      .cls-1, .cls-3 {
        fill: #fff;
        stroke-miterlimit: 10;
      }

      .cls-2 {
        fill: #e5211c;
        stroke-linejoin: bevel;
        stroke-width: 2.72px;
      }

      .cls-3 {
        stroke-width: .36px;
      }
    </style>
  </defs>
  <g id="Camada_2-2" data-name="Camada 2">
    <g>
      <polygon class="cls-2" points="17.44 37.54 1.24 1.36 195.08 1.36 179.29 37.54 17.44 37.54"/>
      <g>
        <g>
          <path class="cls-1" d="m52.8,14.05h-9.63v-3.27h14.58v2.6l-9.48,11.46h9.86v3.27h-15.15v-2.6l9.83-11.46Z"/>
          <path class="cls-1" d="m58.42,28.12l7.7-17.33h3.96l7.77,17.33-4.34-.32-5.42-13.05-5.56,13.36h-4.11Z"/>
          <path class="cls-1" d="m78.53,25.37l9.57-11.32h-9.36v-3.27h14.58v2.6l-9.75,11.46h10.12v3.27h-15.15v-2.74Z"/>
          <path class="cls-1" d="m93.99,28.12l7.7-17.33h3.96l7.77,17.33h-4.21l-5.61-13.5-5.5,13.5h-4.11Z"/>
          <path class="cls-1" d="m126.27,28.12h-4.03V10.79h13.1v3.22h-9.06v14.11Zm0-6.31v-3.22m0,0h8v3.22h-8"/>
          <path class="cls-1" d="m146.17,28.41c-1.34,0-2.58-.22-3.73-.66-1.15-.44-2.14-1.06-2.98-1.87-.84-.81-1.5-1.76-1.97-2.85-.47-1.09-.71-2.29-.71-3.59s.24-2.5.71-3.59c.47-1.09,1.13-2.04,1.98-2.85.85-.81,1.85-1.43,3-1.87,1.15-.44,2.39-.66,3.73-.66,1.5,0,2.86.26,4.08.78s2.24,1.28,3.07,2.29l-2.6,2.38c-.58-.68-1.24-1.19-1.97-1.54-.73-.35-1.53-.52-2.39-.52-.81,0-1.55.14-2.23.41s-1.26.66-1.76,1.15-.88,1.08-1.15,1.76c-.27.68-.41,1.43-.41,2.25s.14,1.58.41,2.25c.27.68.66,1.26,1.15,1.76s1.08.88,1.76,1.15,1.42.41,2.23.41c.86,0,1.66-.18,2.39-.53.73-.36,1.39-.87,1.97-1.55l2.6,2.38c-.83,1.01-1.85,1.77-3.07,2.3-1.22.53-2.59.79-4.11.79Z"/>
        </g>
        <path class="cls-3" d="m164.45,17.57h15.7c0,2.08-1.69,3.76-3.76,3.76h-15.7c0-2.08,1.69-3.76,3.76-3.76Z"/>
        <path class="cls-3" d="m15.79,17.57h15.7c2.08,0,3.76,1.69,3.76,3.76h-15.7c-2.08,0-3.76-1.69-3.76-3.76h0Z"/>
      </g>
    </g>
  </g>
</svg>